Coordinates
version=1
nRows=24
nColumns=38
inDegrees=no

Units are S.I. units (second, meters, Newtons, ...)
If the header above contains a line with 'inDegrees', this indicates whether rotational values are in degrees (yes) or radians (no).

endheader
time	pelvis_tilt	pelvis_list	pelvis_rotation	pelvis_tx	pelvis_ty	pelvis_tz	hip_flexion_r	hip_adduction_r	hip_rotation_r	knee_angle_r	ankle_angle_r	subtalar_angle_r	mtp_angle_r	hip_flexion_l	hip_adduction_l	hip_rotation_l	knee_angle_l	ankle_angle_l	subtalar_angle_l	mtp_angle_l	lumbar_extension	lumbar_bending	lumbar_rotation	arm_flex_r	arm_add_r	arm_rot_r	elbow_flex_r	pro_sup_r	wrist_flex_r	wrist_dev_r	arm_flex_l	arm_add_l	arm_rot_l	elbow_flex_l	pro_sup_l	wrist_flex_l	wrist_dev_l
0	-0.143153	1.25876	1.71723	0.942584	-0.489262	1.00088	0.127786	-0.0993943	-0.115667	0.755206	-0.366055	0	0	0.618913	0.0425445	-0.275896	0.313141	-0.202108	0	0	0.18544	-0.111777	0.13015	-0.0781718	-0.262939	0.315279	0.585897	1.15606	0	0	-0.184681	-0.164778	-0.397382	0.378465	1.09155	0	0
0.01	-0.144279	1.25484	1.71887	0.941872	-0.478375	1.00111	0.161575	-0.104152	-0.0945925	0.811242	-0.412287	0	0	0.622133	0.0434111	-0.271809	0.333747	-0.18868	0	0	0.183766	-0.113946	0.130245	-0.0877815	-0.260479	0.302666	0.594552	1.12728	0	0	-0.182101	-0.167941	-0.384175	0.385339	1.07699	0	0
0.02	-0.149662	1.25632	1.72196	0.941358	-0.466443	1.00182	0.188256	-0.109427	-0.0789858	0.861414	-0.459838	0	0	0.61435	0.0432963	-0.278648	0.346736	-0.178124	0	0	0.179979	-0.115715	0.131653	-0.0957698	-0.258433	0.297719	0.598383	1.10604	0	0	-0.181851	-0.17141	-0.368699	0.391299	1.06253	0	0
0.03	-0.153293	1.26201	1.72131	0.940961	-0.454182	1.00293	0.210638	-0.113653	-0.0677657	0.906365	-0.521383	0	0	0.598898	0.0415341	-0.290597	0.354576	-0.163509	0	0	0.172199	-0.115757	0.135893	-0.104405	-0.255834	0.287374	0.601564	1.09933	0	0	-0.174823	-0.162029	-0.425148	0.39365	1.11965	0	0
0.04	-0.152041	1.26775	1.71541	0.94062	-0.441749	1.00416	0.232929	-0.116745	-0.0600662	0.949029	-0.55467	0	0	0.581293	0.0390377	-0.302973	0.358881	-0.150563	0	0	0.166245	-0.113503	0.137314	-0.109978	-0.2554	0.288188	0.601484	1.09652	0	0	-0.175527	-0.161954	-0.421735	0.398289	1.11381	0	0
0.05	-0.148554	1.27375	1.70679	0.940357	-0.429285	1.0057	0.254542	-0.119757	-0.0552591	0.989232	-0.558674	0	0	0.561326	0.036346	-0.31562	0.35969	-0.139163	0	0	0.160955	-0.110264	0.138008	-0.113725	-0.255378	0.292757	0.59843	1.10082	0	0	-0.176436	-0.161374	-0.420172	0.400891	1.1071	0	0
0.06	-0.14379	1.27898	1.69755	0.940012	-0.416871	1.00743	0.275832	-0.121767	-0.0489774	1.02625	-0.543174	0	0	0.540709	0.0344447	-0.324751	0.357064	-0.130059	0	0	0.156997	-0.10712	0.13731	-0.115525	-0.255329	0.300534	0.592117	1.11007	0	0	-0.178061	-0.161128	-0.417841	0.402671	1.09991	0	0
0.07	-0.1377	1.28387	1.68895	0.939437	-0.404537	1.00935	0.296475	-0.12335	-0.0434495	1.05975	-0.525887	0	0	0.520301	0.0330351	-0.331804	0.353501	-0.125521	0	0	0.153187	-0.10382	0.136216	-0.11816	-0.256944	0.310312	0.587217	1.11635	0	0	-0.177426	-0.160257	-0.419982	0.401193	1.09995	0	0
0.08	-0.129991	1.28789	1.68126	0.938641	-0.392257	1.01132	0.317162	-0.125061	-0.0397675	1.09118	-0.486265	0	0	0.501445	0.0320357	-0.336705	0.350451	-0.118306	0	0	0.151805	-0.100557	0.129865	-0.118392	-0.258077	0.324095	0.578432	1.13523	0	0	-0.17939	-0.15764	-0.432511	0.400255	1.10358	0	0
0.09	-0.118341	1.29058	1.67152	0.937769	-0.380059	1.01322	0.338814	-0.126763	-0.0406159	1.11897	-0.442132	0	0	0.485255	0.0306979	-0.335326	0.348289	-0.112082	0	0	0.153033	-0.0961608	0.120065	-0.117451	-0.260673	0.344618	0.568901	1.15433	0	0	-0.187193	-0.162554	-0.400262	0.400943	1.05969	0	0
0.1	-0.103224	1.29383	1.65929	0.936918	-0.367979	1.01517	0.359363	-0.127619	-0.0436725	1.14201	-0.399208	0	0	0.46914	0.0284265	-0.330325	0.346587	-0.105823	0	0	0.150242	-0.0916379	0.117047	-0.129182	-0.246812	0.28764	0.561898	1.26524	0	0	-0.18188	-0.153115	-0.455139	0.397683	1.11133	0	0
0.11	-0.0859372	1.2978	1.64502	0.936121	-0.35597	1.01716	0.378634	-0.127228	-0.0464323	1.15983	-0.368301	0	0	0.451864	0.0256859	-0.322473	0.34343	-0.10121	0	0	0.148741	-0.0859601	0.109739	-0.132768	-0.248035	0.291172	0.556832	1.29593	0	0	-0.185018	-0.153211	-0.45292	0.397191	1.10364	0	0
0.12	-0.0669297	1.30226	1.62879	0.935419	-0.344049	1.01919	0.396924	-0.125616	-0.0489391	1.17217	-0.340891	0	0	0.433672	0.0226404	-0.313956	0.339477	-0.0969584	0	0	0.146404	-0.0799476	0.102789	-0.136474	-0.249879	0.295493	0.552655	1.32275	0	0	-0.188434	-0.153343	-0.450475	0.39746	1.09505	0	0
0.13	-0.0464746	1.3058	1.61103	0.934813	-0.332268	1.02113	0.415809	-0.122924	-0.0513367	1.17991	-0.315251	0	0	0.41644	0.019041	-0.307998	0.336054	-0.0931504	0	0	0.144793	-0.0740696	0.0958467	-0.140148	-0.252315	0.303205	0.548719	1.34623	0	0	-0.192394	-0.153688	-0.448035	0.398498	1.08547	0	0
0.14	-0.0237984	1.30884	1.59024	0.934309	-0.320564	1.02301	0.434681	-0.118904	-0.0533885	1.18255	-0.299418	0	0	0.399201	0.0147404	-0.304074	0.332091	-0.0913303	0	0	0.145121	-0.0679048	0.087674	-0.137965	-0.265396	0.358745	0.545308	1.30313	0	0	-0.197208	-0.151408	-0.461983	0.399653	1.09093	0	0
0.15	1.78902e-05	1.31074	1.56767	0.933868	-0.308934	1.02471	0.454026	-0.113996	-0.0554347	1.18046	-0.276109	0	0	0.382104	0.0102138	-0.30186	0.326191	-0.0883147	0	0	0.144432	-0.0613254	0.0832674	-0.143066	-0.265243	0.355768	0.540429	1.33109	0	0	-0.199945	-0.14991	-0.47031	0.40088	1.09341	0	0
0.16	0.0248165	1.31256	1.54349	0.933518	-0.297361	1.02635	0.472511	-0.10814	-0.0572866	1.17324	-0.255296	0	0	0.364095	0.00554225	-0.300336	0.31841	-0.0858655	0	0	0.143481	-0.054482	0.0800997	-0.148079	-0.264822	0.351538	0.535293	1.35022	0	0	-0.202405	-0.148916	-0.47601	0.402162	1.09516	0	0
0.17	0.049518	1.31374	1.51952	0.933244	-0.285899	1.02783	0.490765	-0.101932	-0.0599652	1.16257	-0.228141	0	0	0.346403	0.000926996	-0.299344	0.309842	-0.0828576	0	0	0.142571	-0.0476306	0.0768478	-0.15333	-0.263411	0.343697	0.529932	1.37135	0	0	-0.208988	-0.156236	-0.432965	0.405706	1.04914	0	0
0.18	0.075174	1.31454	1.49514	0.932995	-0.274564	1.02917	0.508417	-0.0951204	-0.0629552	1.14797	-0.21045	0	0	0.329415	-0.00427172	-0.299913	0.301792	-0.0815179	0	0	0.141222	-0.0411002	0.0751335	-0.159408	-0.261954	0.335582	0.525375	1.38101	0	0	-0.209189	-0.15539	-0.440515	0.40689	1.05531	0	0
0.19	0.100701	1.31459	1.47197	0.932781	-0.263308	1.03036	0.525399	-0.088233	-0.0667743	1.12949	-0.190128	0	0	0.313813	-0.00964818	-0.300346	0.294794	-0.0799911	0	0	0.140184	-0.0348883	0.0723594	-0.16461	-0.259547	0.327191	0.519167	1.38704	0	0	-0.208879	-0.155107	-0.446743	0.407736	1.06012	0	0
0.2	0.128137	1.31377	1.44845	0.932524	-0.252088	1.03138	0.541547	-0.0814916	-0.073119	1.10688	-0.170587	0	0	0.299619	-0.0155709	-0.298566	0.288664	-0.0785212	0	0	0.139599	-0.0282094	0.0681352	-0.169503	-0.25672	0.318491	0.512347	1.38923	0	0	-0.207976	-0.155145	-0.451608	0.408084	1.06348	0	0
0.21	0.159017	1.31369	1.42301	0.932261	-0.240936	1.03238	0.555089	-0.0742927	-0.0806838	1.07962	-0.153427	0	0	0.285194	-0.0226897	-0.296605	0.283943	-0.0771942	0	0	0.137142	-0.0209004	0.0626188	-0.173621	-0.253606	0.309645	0.505445	1.38749	0	0	-0.205765	-0.155572	-0.455026	0.407627	1.06558	0	0
0.22	0.190442	1.31335	1.39729	0.932062	-0.229814	1.03324	0.567468	-0.0669993	-0.0885816	1.04846	-0.138724	0	0	0.271187	-0.0304345	-0.296328	0.279923	-0.0759723	0	0	0.134462	-0.0133499	0.0572118	-0.177182	-0.250138	0.301321	0.497867	1.38225	0	0	-0.202906	-0.156408	-0.456974	0.40685	1.06611	0	0
0.23	0.222611	1.31237	1.37158	0.93183	-0.218769	1.03388	0.578613	-0.0598462	-0.0975325	1.01285	-0.126176	0	0	0.257928	-0.0386678	-0.297792	0.276287	-0.0749309	0	0	0.131012	-0.00609645	0.0507436	-0.179193	-0.246281	0.295015	0.489182	1.37423	0	0	-0.20076	-0.157549	-0.457869	0.408885	1.06505	0	0
